<?xml version="1.0" encoding="UTF-8"?>
<!DOCTYPE svg PUBLIC "-//W3C//DTD SVG 1.0//EN" "http://www.w3.org/TR/2001/REC-SVG-20010904/DTD/svg10.dtd">
<!-- Creator: CorelDRAW 2017 -->
<svg xmlns="http://www.w3.org/2000/svg" xml:space="preserve" width="58.7364mm" height="64.028mm" version="1.0" style="shape-rendering:geometricPrecision; text-rendering:geometricPrecision; image-rendering:optimizeQuality; fill-rule:evenodd; clip-rule:evenodd"
viewBox="0 0 5873.64 6402.8"
 xmlns:xlink="http://www.w3.org/1999/xlink">
 <defs>
  <style type="text/css">
   <![CDATA[
    .fil0 {fill:#D01F2F}
    .fil2 {fill:#E8ADB1}
    .fil1 {fill:#EF907B}
   ]]>
  </style>
 </defs>
 <g id="Слой_x0020_1">
  <metadata id="CorelCorpID_0Corel-Layer"/>
  <path class="fil0" d="M1245.68 3466.02l19.31 18.48 1151.13 -443.14 -304.9 666.45 1539.94 -462.13 59.36 -27.72 -29.4 56.25c-77.51,261.52 -303.37,618.73 -437.73,803.77 -932.93,1284.77 -2093.97,973.39 -1966.18,-43.75l-233.13 45.35c-62.62,496 -205.21,865.86 -88.99,1410.46 94.84,444.37 384.82,755.32 914.04,575.16 205.61,-69.99 360.45,-180.71 506.8,-287.71 376.72,-275.41 466.61,-449.34 771.35,-791.57 116.49,-130.82 227.29,-287.09 326.15,-441.26 208.55,-325.25 394.33,-625.99 565.27,-994.75 337.02,-727.06 685.48,-1643.51 653.56,-2475.73 -8.58,-223.63 -42.64,-452.47 -138.72,-631.72 -137.42,-256.37 -157.91,-216.41 -428.43,-346.4l-167.97 0c-177.4,64.34 -247.27,52.08 -440.7,151.81 -224.27,115.63 -498.46,350.5 -663.16,529.79l-277.07 305.37c-217.84,244.72 -830.55,1201.27 -930.54,1444.37 386.58,-82.94 315.33,-74.4 510.79,-331.41l379.31 -439.77c101.5,-103.47 300.12,-271.33 450.21,-368.37 704.94,-455.79 1237.3,36.38 974.96,1001.98 -85.42,314.42 -162.49,264.31 -442.03,374.56 -164.29,64.8 -428.35,153.62 -579.14,223.92l319.04 -693.39c-156.93,43.02 -397.96,164.83 -558.99,232.59 -180.04,75.75 -371.13,160.25 -555.86,237.46 -159.54,66.68 -729.24,254.92 -794.38,400.05 -36.08,80.38 -83.69,218.62 -103.9,301z"/>
  <path class="fil0" d="M55.36 6044.01l1054.37 0c-32.14,-71.7 -47.21,-64.96 -91.76,-135.01 -33.26,-52.3 -52.52,-99.7 -76.53,-153.44l-591.6 -9.87 8.91 -5113.44 2520.1 1.24c45.91,-56.15 69.29,-97.44 126.46,-153.78 62.03,-61.11 101.77,-73.97 146.7,-139.69l-3096.65 0.1 0 5703.89z"/>
  <path class="fil0" d="M4843.05 630.63l632.87 7.04 -9.06 5115.41 -2421.72 0.4c-87.08,26.48 -102.91,56.31 -167.17,109.85 -46.82,55.75 -152.88,112.85 -223.54,180.58l3115.91 0.1 0 -5703.89 -1076.28 2.57c50.96,98.54 98.03,149.5 148.99,287.94z"/>
  <path class="fil1" d="M704.69 6233.97l303.96 0c120.16,-53.8 255.74,-70.35 408.23,-145.52 236.53,-116.58 435.75,-310.57 614.31,-498.79 59.44,-62.65 74.75,-73.28 147.95,-142.65 267.6,-253.6 812.12,-1102.19 1021.14,-1518.48 239.08,-476.16 489.96,-1045.3 636.13,-1614.66 115.65,-450.49 217.65,-1043.25 90.66,-1510.64l-129.27 -294.94c-24.69,-33.71 -4.36,-12.01 -39.54,-44.71 -33.88,-31.5 -4.79,-8.2 -51.63,-38.42 419.06,1206.79 -287.18,2665.44 -790.19,3616.1l-452.28 713.27c-320.74,414.73 -732.21,889.21 -1152.23,1174.08 -281.75,191.09 -532.31,249.38 -908.34,178.98 108.68,71.98 195.65,72.81 301.1,126.38z"/>
  <path class="fil1" d="M2100.39 2416.64c490.25,-100.74 173.57,-87.08 801.86,-612.19 128.65,-107.52 243.49,-220.69 420.55,-291.32 255.45,-101.88 341.31,-46.68 553.59,36.12 -363.22,-618.39 -1135.97,72.19 -1446.53,417.31 -68.13,75.72 -86.95,129.25 -172.65,225.91 -60.12,67.81 -131.13,141.12 -156.82,224.17z"/>
  <path class="fil1" d="M2344.25 3870.4c103.52,29.89 99.04,19.84 199.82,-13.87 130.78,-43.75 249.35,-82.31 381.27,-122.87 457.49,-140.64 495.55,-105.52 618.37,-385.88l-1384.74 411.96 185.28 110.66z"/>
  <path class="fil1" d="M1350.7 3556.41c214.21,149.64 261.33,75.16 519.44,-30.8 263,-107.97 306.31,-84.89 404.64,-366.6l-959.37 368.96 35.29 28.44z"/>
  <path class="fil2" d="M2877.97 5863.33c64.26,-53.54 80.09,-83.37 167.17,-109.85l2421.72 -0.4 9.06 -5115.41 -632.87 -7.04c117.11,60.12 459.53,28.26 612.22,21.05l0.94 5080 -2385.26 0.01c-99.31,10.77 -150.36,67.13 -192.98,131.64z"/>
  <path class="fil2" d="M941.44 5755.56c-16,-6.79 7.37,-9.9 -65.35,-20.51 -14.34,-2.09 -62.17,-2.26 -78.82,-2.43l-426.84 1.47 -0.94 -5078.75 2509.36 -21.85 -2520.1 -1.24 -8.91 5113.44 591.6 9.87z"/>
  <path class="fil1" d="M1712.95 4801.72c-71.81,-92.73 -142.79,-198.59 -189.52,-352.68 -93.08,-306.97 61.29,-342.43 -163.87,-363.08 -19.7,365.76 111.79,628.37 353.39,715.76z"/>
  <path class="fil1" d="M3086.06 2846.67c264.42,-73.98 321.59,-164.16 231.77,-448.19l-231.77 448.19z"/>
  <path class="fil2" d="M3681.12 3274.21l29.4 -56.25 -59.36 27.72 29.96 28.53z"/>
  <path class="fil2" d="M1264.99 3484.5l-19.31 -18.48 -30.8 51.89 50.11 -33.41z"/>
 </g>
</svg>
